<?xml version="1.0" standalone="no"?>
<!DOCTYPE svg PUBLIC "-//W3C//DTD SVG 20010904//EN"
 "http://www.w3.org/TR/2001/REC-SVG-20010904/DTD/svg10.dtd">
<svg version="1.0" xmlns="http://www.w3.org/2000/svg"
 width="1280.000000pt" height="640.000000pt" viewBox="0 0 1280.000000 640.000000"
 preserveAspectRatio="xMidYMid meet">
<metadata>
Created by potrace 1.15, written by Peter Selinger 2001-2017
</metadata>
<g transform="translate(0.000000,640.000000) scale(0.100000,-0.100000)"
fill="#f9c7de" stroke="none">
<path d="M1775 5399 c-461 -17 -1011 -51 -1464 -89 -129 -11 -240 -20 -248
-20 -9 0 -13 -15 -13 -49 l0 -48 63 -41 c77 -50 271 -211 442 -367 552 -503
1031 -1022 1135 -1228 l29 -59 -56 -66 c-74 -87 -272 -353 -455 -612 -271
-385 -944 -1370 -935 -1370 2 0 78 36 168 79 291 141 640 244 1065 316 509 87
936 106 1861 86 1029 -22 1595 -71 2173 -187 319 -64 594 -137 1460 -387 531
-153 879 -245 1010 -267 675 -112 2005 -131 3905 -55 204 8 445 18 538 21 153
6 167 8 167 25 0 14 7 19 25 19 19 0 25 5 25 23 0 35 -65 135 -155 238 -191
219 -251 282 -401 424 -468 443 -575 552 -707 720 -64 83 -157 217 -157 228 0
3 39 38 87 78 90 77 267 270 389 424 283 359 686 983 1007 1560 50 90 67 131
67 159 0 35 -2 38 -22 33 -13 -4 -243 -74 -513 -157 -681 -210 -777 -236
-1035 -279 -468 -79 -952 -101 -1817 -82 -862 18 -1098 28 -1291 51 -566 67
-1292 205 -2787 529 -203 44 -527 114 -720 156 -655 142 -824 165 -1430 195
-236 11 -1105 11 -1410 -1z"/>
</g>
</svg>
