<?xml version="1.0" standalone="no"?>
<!DOCTYPE svg PUBLIC "-//W3C//DTD SVG 20010904//EN"
 "http://www.w3.org/TR/2001/REC-SVG-20010904/DTD/svg10.dtd">
<svg version="1.0" xmlns="http://www.w3.org/2000/svg"
 width="1278.000000pt" height="1280.000000pt" viewBox="0 0 1278.000000 1280.000000"
 preserveAspectRatio="xMidYMid meet">
<g transform="translate(0.000000,1280.000000) scale(0.100000,-0.100000)"
fill="#8ad1e0" stroke="none">
<path d="M6438 12207 c-15 -7 -111 -102 -214 -212 -209 -225 -415 -435 -425
-435 -4 0 -53 37 -110 83 -611 491 -627 502 -678 460 -11 -10 -90 -144 -174
-298 -213 -388 -267 -484 -277 -490 -5 -3 -189 76 -408 175 -269 121 -411 180
-434 180 -62 0 -68 -13 -177 -435 -118 -458 -119 -463 -130 -469 -4 -3 -198
28 -432 69 -233 41 -436 75 -452 75 -16 0 -38 -10 -52 -25 l-25 -24 0 -449 c0
-348 -3 -452 -13 -459 -6 -6 -205 -25 -442 -43 -236 -17 -441 -37 -455 -44
-13 -6 -31 -23 -40 -38 -14 -27 -10 -49 93 -455 59 -236 108 -435 107 -444 0
-12 -101 -50 -417 -158 -265 -90 -425 -149 -440 -163 -44 -42 -37 -61 187
-469 116 -211 209 -391 208 -399 -2 -8 -170 -123 -373 -255 -253 -165 -374
-250 -383 -268 -7 -15 -10 -37 -6 -52 4 -16 134 -163 310 -351 167 -179 304
-329 304 -334 0 -10 -101 -122 -398 -445 -111 -121 -205 -230 -208 -243 -15
-57 2 -72 371 -307 194 -124 365 -235 379 -246 l26 -21 -67 -126 c-36 -70
-129 -244 -206 -386 -76 -143 -141 -274 -144 -290 -11 -67 -1 -72 462 -226
234 -78 425 -144 425 -147 0 -11 -73 -325 -135 -577 -36 -147 -65 -281 -65
-298 0 -43 36 -74 95 -81 28 -3 228 -18 445 -33 217 -15 399 -30 404 -34 4 -5
12 -208 18 -452 10 -504 8 -490 87 -496 23 -2 222 29 442 68 220 39 410 70
422 68 25 -4 42 -55 172 -530 46 -169 89 -316 95 -327 11 -22 52 -37 85 -32
11 1 148 60 305 131 376 169 473 210 498 210 29 0 74 -69 299 -465 85 -148
163 -278 175 -288 11 -9 35 -17 53 -17 37 0 40 2 267 183 267 213 349 271 421
296 42 15 76 21 93 17 16 -4 134 -116 308 -291 154 -156 291 -286 302 -289 44
-13 72 13 205 186 207 271 246 315 328 372 87 61 152 96 178 96 24 0 179 -87
443 -248 234 -144 265 -155 307 -109 12 12 58 108 103 212 45 105 96 217 112
250 53 104 194 256 281 302 29 15 93 0 419 -98 205 -62 305 -88 323 -83 34 8
62 46 69 92 74 480 82 512 164 642 44 72 128 158 170 177 29 12 80 12 357 2
419 -16 398 -27 376 206 -33 362 -35 404 -23 462 27 130 132 292 214 331 24
11 160 46 303 77 143 31 272 61 286 66 26 10 59 56 59 83 0 8 -36 109 -79 225
-121 318 -131 354 -119 426 18 115 90 251 170 319 20 18 141 85 268 150 133
68 239 129 250 143 11 14 20 38 20 53 0 31 3 26 -177 280 -73 102 -148 212
-168 245 -35 58 -36 63 -30 125 9 87 35 164 81 247 47 85 90 131 286 305 86
77 162 153 168 168 22 54 4 76 -202 250 -108 91 -229 195 -269 231 l-74 67 1
83 c1 91 39 247 79 329 13 25 82 134 154 243 140 213 149 236 109 281 -13 14
-129 76 -258 138 -129 62 -278 136 -330 164 -111 59 -107 50 -109 230 -1 147
8 187 113 483 42 117 76 228 76 246 0 65 -17 71 -372 141 -384 76 -464 98
-472 128 -46 161 -48 181 -31 391 9 110 22 262 30 337 15 145 14 160 -18 196
-25 27 -62 28 -387 7 -124 -8 -291 -15 -372 -15 -135 0 -148 2 -158 19 -18 35
-38 139 -95 501 -51 324 -58 357 -80 379 -17 17 -35 25 -57 24 -18 -1 -152
-40 -298 -87 -369 -120 -549 -171 -561 -159 -6 6 -86 187 -178 403 -92 216
-178 403 -190 416 -38 39 -67 31 -207 -57 -278 -176 -571 -357 -603 -373 -28
-15 -36 -16 -46 -4 -6 7 -119 155 -250 328 -131 173 -252 329 -269 346 -38 39
-63 47 -98 31z"/>
</g>
</svg>
